<?xml version="1.0" encoding="UTF-8" standalone="no"?>
<!-- Created with Inkscape (http://www.inkscape.org/) -->

<svg
   width="210mm"
   height="297mm"
   viewBox="0 0 210 297"
   version="1.1"
   id="svg5"
   xml:space="preserve"
   inkscape:export-filename="logo_escuro.svg"
   inkscape:export-xdpi="96"
   inkscape:export-ydpi="96"
   inkscape:version="1.2.2 (732a01da63, 2022-12-09)"
   sodipodi:docname="assets.svg"
   xmlns:inkscape="http://www.inkscape.org/namespaces/inkscape"
   xmlns:sodipodi="http://sodipodi.sourceforge.net/DTD/sodipodi-0.dtd"
   xmlns="http://www.w3.org/2000/svg"
   xmlns:svg="http://www.w3.org/2000/svg"><sodipodi:namedview
     id="namedview7"
     pagecolor="#ffffff"
     bordercolor="#000000"
     borderopacity="0.25"
     inkscape:showpageshadow="2"
     inkscape:pageopacity="0.0"
     inkscape:pagecheckerboard="0"
     inkscape:deskcolor="#d1d1d1"
     inkscape:document-units="mm"
     showgrid="false"
     showguides="true"
     inkscape:zoom="0.11072262"
     inkscape:cx="-1345.7052"
     inkscape:cy="-370.29472"
     inkscape:window-width="1920"
     inkscape:window-height="1017"
     inkscape:window-x="-8"
     inkscape:window-y="-8"
     inkscape:window-maximized="1"
     inkscape:current-layer="layer1" /><defs
     id="defs2" /><g
     inkscape:label="Camada 1"
     inkscape:groupmode="layer"
     id="layer1"><g
       id="g426"
       transform="matrix(1.6114476,0,0,-1.6114476,-454.47851,-138.06719)"><path
         id="path551"
         style="fill:#ffffff;fill-opacity:1;stroke:none;stroke-width:0.352991"
         d="m 7.703237,-60.432924 c -1.10468,-6.7e-5 -2.0001,-0.895722 -1.99988,-2.000394 v -8.65787 a 1.5,1.5 0 0 1 0.0155,-0.213424 1.5,1.5 0 0 1 0.0455,-0.209289 1.5,1.5 0 0 1 0.0744,-0.200505 1.5,1.5 0 0 1 0.10283,-0.187585 1.5,1.5 0 0 1 0.12816,-0.171566 1.5,1.5 0 0 1 0.15141,-0.151412 1.5,1.5 0 0 1 0.17157,-0.128157 1.5,1.5 0 0 1 0.18758,-0.10232 1.5,1.5 0 0 1 0.20051,-0.07493 1.5,1.5 0 0 1 0.20929,-0.04548 1.5,1.5 0 0 1 0.21342,-0.0155 h 8.55246 c 1.10467,6.7e-5 2.00009,0.895721 1.99987,2.000395 -6e-5,1.104472 -0.8954,1.999811 -1.99987,1.999878 0,0 -4.21518,-0.008 -6.05286,0 -0.004,1.507607 0,6.157764 0,6.157764 2.1e-4,1.104672 -0.89521,2.000327 -1.99989,2.000395 z" /><path
         id="path543"
         style="fill:#ffffff;fill-opacity:1;stroke:none;stroke-width:0.352991"
         d="m 7.703237,-32.988873 c -1.10468,6.7e-5 -2.0001,0.895722 -1.99988,2.000394 v 8.65787 a 1.5,1.5 0 0 0 0.0155,0.213424 1.5,1.5 0 0 0 0.0455,0.209289 1.5,1.5 0 0 0 0.0744,0.200505 1.5,1.5 0 0 0 0.10283,0.187585 1.5,1.5 0 0 0 0.12816,0.171566 1.5,1.5 0 0 0 0.15141,0.151412 1.5,1.5 0 0 0 0.17157,0.128157 1.5,1.5 0 0 0 0.18758,0.10232 1.5,1.5 0 0 0 0.20051,0.07493 1.5,1.5 0 0 0 0.20929,0.04548 1.5,1.5 0 0 0 0.21342,0.0155 h 8.55246 c 1.10467,-6.7e-5 2.00009,-0.895721 1.99987,-2.000395 -6e-5,-1.104472 -0.8954,-1.999811 -1.99987,-1.999878 0,0 -4.21518,0.008 -6.05286,0 -0.004,-1.507607 0,-6.157764 0,-6.157764 2.1e-4,-1.104672 -0.89521,-2.000327 -1.99989,-2.000395 z" /><path
         id="path553"
         style="fill:#ffffff;fill-opacity:1;stroke:none;stroke-width:0.352991"
         d="m 78.803125,-32.988873 c 1.10468,6.7e-5 2.0001,0.895722 1.99988,2.000394 v 8.65787 a 1.5,1.5 0 0 1 -0.0155,0.213424 1.5,1.5 0 0 1 -0.0455,0.209289 1.5,1.5 0 0 1 -0.0744,0.200505 1.5,1.5 0 0 1 -0.10284,0.187585 1.5,1.5 0 0 1 -0.12815,0.171566 1.5,1.5 0 0 1 -0.15142,0.151412 1.5,1.5 0 0 1 -0.17156,0.128157 1.5,1.5 0 0 1 -0.18759,0.10232 1.5,1.5 0 0 1 -0.2005,0.07493 1.5,1.5 0 0 1 -0.20929,0.04548 1.5,1.5 0 0 1 -0.21342,0.0155 h -8.55245 c -1.10468,-6.7e-5 -2.0001,-0.895721 -1.99988,-2.000395 7e-5,-1.104472 0.8954,-1.999811 1.99988,-1.999878 0,0 4.21518,0.008 6.05286,0 0.004,-1.507607 0,-6.157764 0,-6.157764 -2.2e-4,-1.104672 0.8952,-2.000327 1.99987,-2.000394 z" /><path
         id="path555"
         style="fill:#ffffff;fill-opacity:1;stroke:none;stroke-width:0.352991"
         d="m 78.803125,-60.432924 c 1.10468,-6.7e-5 2.0001,-0.895722 1.99988,-2.000394 v -8.65787 a 1.5,1.5 0 0 0 -0.0155,-0.213424 1.5,1.5 0 0 0 -0.0455,-0.209289 1.5,1.5 0 0 0 -0.0744,-0.200505 1.5,1.5 0 0 0 -0.10284,-0.187585 1.5,1.5 0 0 0 -0.12815,-0.171566 1.5,1.5 0 0 0 -0.15142,-0.151412 1.5,1.5 0 0 0 -0.17156,-0.128157 1.5,1.5 0 0 0 -0.18759,-0.10232 1.5,1.5 0 0 0 -0.2005,-0.07493 1.5,1.5 0 0 0 -0.20929,-0.04548 1.5,1.5 0 0 0 -0.21342,-0.0155 h -8.55245 c -1.10468,6.7e-5 -2.0001,0.895721 -1.99988,2.000395 7e-5,1.104472 0.8954,1.999811 1.99988,1.999878 0,0 4.21518,-0.008 6.05286,0 0.004,1.507607 0,6.157764 0,6.157764 -2.2e-4,1.104672 0.8952,2.000327 1.99987,2.000394 z" /><circle
         style="fill:#ffffff;fill-opacity:1;stroke:none;stroke-width:0.296096"
         id="path722"
         cx="18.963655"
         cy="-63.111206"
         r="2" /><rect
         style="fill:#ffffff;fill-opacity:1;stroke:none;stroke-width:0.349576"
         id="rect728"
         width="4"
         height="28.972143"
         x="16.963655"
         y="-57.282734"
         ry="2"
         rx="2" /><circle
         style="fill:#ffffff;fill-opacity:1;stroke:none;stroke-width:0.296096"
         id="circle734"
         cx="28.679466"
         cy="30.310591"
         r="2"
         transform="scale(1,-1)" /><rect
         style="fill:#ffffff;fill-opacity:1;stroke:none;stroke-width:0.349576"
         id="rect736"
         width="4"
         height="28.972143"
         x="26.679466"
         y="36.139061"
         ry="2"
         rx="2"
         transform="scale(1,-1)" /><circle
         style="fill:#ffffff;fill-opacity:1;stroke:none;stroke-width:0.296096"
         id="circle740"
         cx="-38.395275"
         cy="-63.111206"
         r="2"
         transform="scale(-1,1)" /><rect
         style="fill:#ffffff;fill-opacity:1;stroke:none;stroke-width:0.349576"
         id="rect742"
         width="4"
         height="28.972143"
         x="-40.395275"
         y="-57.282734"
         ry="2"
         rx="2"
         transform="scale(-1,1)" /><circle
         style="fill:#ffffff;fill-opacity:1;stroke:none;stroke-width:0.296096"
         id="circle746"
         cx="-48.111084"
         cy="30.310591"
         r="2"
         transform="scale(-1)" /><rect
         style="fill:#ffffff;fill-opacity:1;stroke:none;stroke-width:0.349576"
         id="rect748"
         width="4"
         height="28.972143"
         x="-50.111084"
         y="36.139065"
         ry="2"
         rx="2"
         transform="scale(-1)" /><circle
         style="fill:#ffffff;fill-opacity:1;stroke:none;stroke-width:0.296096"
         id="circle752"
         cx="-57.8269"
         cy="-63.111206"
         r="2"
         transform="scale(-1,1)" /><rect
         style="fill:#ffffff;fill-opacity:1;stroke:none;stroke-width:0.349576"
         id="rect754"
         width="4"
         height="28.972143"
         x="-59.8269"
         y="-57.282734"
         ry="2"
         rx="2"
         transform="scale(-1,1)" /><circle
         style="fill:#ffffff;fill-opacity:1;stroke:none;stroke-width:0.296096"
         id="circle758"
         cx="-67.542709"
         cy="30.310591"
         r="2"
         transform="scale(-1)" /><rect
         style="fill:#ffffff;fill-opacity:1;stroke:none;stroke-width:0.349576"
         id="rect760"
         width="4"
         height="28.972143"
         x="-69.542709"
         y="36.139065"
         ry="2"
         rx="2"
         transform="scale(-1)" /><rect
         style="fill:#f44036;fill-opacity:1;stroke-width:0.29875"
         id="rect617"
         width="70"
         height="7.1548491"
         x="8.2531796"
         y="-50.288326"
         ry="3.5774245" /></g><g
       id="g407"
       transform="matrix(1.6114476,0,0,1.6114476,-624.58373,147.45787)"><path
         id="path551-6"
         style="fill:#000000;fill-opacity:1;stroke-width:0.352991"
         d="m 116.12164,-60.432924 c -1.10468,-6.7e-5 -2.0001,-0.895722 -1.99988,-2.000394 v -8.65787 a 1.5,1.5 0 0 1 0.0155,-0.213424 1.5,1.5 0 0 1 0.0455,-0.209289 1.5,1.5 0 0 1 0.0744,-0.200505 1.5,1.5 0 0 1 0.10283,-0.187585 1.5,1.5 0 0 1 0.12816,-0.171566 1.5,1.5 0 0 1 0.15141,-0.151412 1.5,1.5 0 0 1 0.17157,-0.128157 1.5,1.5 0 0 1 0.18758,-0.10232 1.5,1.5 0 0 1 0.20051,-0.07493 1.5,1.5 0 0 1 0.20929,-0.04548 1.5,1.5 0 0 1 0.21342,-0.0155 h 8.55246 c 1.10467,6.7e-5 2.00009,0.895721 1.99987,2.000395 -6e-5,1.104472 -0.8954,1.999811 -1.99987,1.999878 0,0 -4.21518,-0.008 -6.05286,0 -0.004,1.507607 0,6.157764 0,6.157764 2.1e-4,1.104672 -0.89521,2.000327 -1.99989,2.000395 z"
         inkscape:export-filename=".\path551-6.svg"
         inkscape:export-xdpi="96"
         inkscape:export-ydpi="96" /><path
         id="path543-3"
         style="fill:#000000;fill-opacity:1;stroke-width:0.352991"
         d="m 116.12164,-32.988873 c -1.10468,6.7e-5 -2.0001,0.895722 -1.99988,2.000394 v 8.65787 a 1.5,1.5 0 0 0 0.0155,0.213424 1.5,1.5 0 0 0 0.0455,0.209289 1.5,1.5 0 0 0 0.0744,0.200505 1.5,1.5 0 0 0 0.10283,0.187585 1.5,1.5 0 0 0 0.12816,0.171566 1.5,1.5 0 0 0 0.15141,0.151412 1.5,1.5 0 0 0 0.17157,0.128157 1.5,1.5 0 0 0 0.18758,0.10232 1.5,1.5 0 0 0 0.20051,0.07493 1.5,1.5 0 0 0 0.20929,0.04548 1.5,1.5 0 0 0 0.21342,0.0155 h 8.55246 c 1.10467,-6.7e-5 2.00009,-0.895721 1.99987,-2.000395 -6e-5,-1.104472 -0.8954,-1.999811 -1.99987,-1.999878 0,0 -4.21518,0.008 -6.05286,0 -0.004,-1.507607 0,-6.157764 0,-6.157764 2.1e-4,-1.104672 -0.89521,-2.000327 -1.99989,-2.000395 z" /><path
         id="path553-6"
         style="fill:#000000;fill-opacity:1;stroke-width:0.352991"
         d="m 187.22153,-32.988873 c 1.10468,6.7e-5 2.0001,0.895722 1.99988,2.000394 v 8.65787 a 1.5,1.5 0 0 1 -0.0155,0.213424 1.5,1.5 0 0 1 -0.0455,0.209289 1.5,1.5 0 0 1 -0.0744,0.200505 1.5,1.5 0 0 1 -0.10284,0.187585 1.5,1.5 0 0 1 -0.12815,0.171566 1.5,1.5 0 0 1 -0.15142,0.151412 1.5,1.5 0 0 1 -0.17156,0.128157 1.5,1.5 0 0 1 -0.18759,0.10232 1.5,1.5 0 0 1 -0.2005,0.07493 1.5,1.5 0 0 1 -0.20929,0.04548 1.5,1.5 0 0 1 -0.21342,0.0155 h -8.55245 c -1.10468,-6.7e-5 -2.0001,-0.895721 -1.99988,-2.000395 7e-5,-1.104472 0.8954,-1.999811 1.99988,-1.999878 0,0 4.21518,0.008 6.05286,0 0.004,-1.507607 0,-6.157764 0,-6.157764 -2.2e-4,-1.104672 0.8952,-2.000327 1.99987,-2.000394 z" /><path
         id="path555-9"
         style="fill:#000000;fill-opacity:1;stroke-width:0.352991"
         d="m 187.22153,-60.432924 c 1.10468,-6.7e-5 2.0001,-0.895722 1.99988,-2.000394 v -8.65787 a 1.5,1.5 0 0 0 -0.0155,-0.213424 1.5,1.5 0 0 0 -0.0455,-0.209289 1.5,1.5 0 0 0 -0.0744,-0.200505 1.5,1.5 0 0 0 -0.10284,-0.187585 1.5,1.5 0 0 0 -0.12815,-0.171566 1.5,1.5 0 0 0 -0.15142,-0.151412 1.5,1.5 0 0 0 -0.17156,-0.128157 1.5,1.5 0 0 0 -0.18759,-0.10232 1.5,1.5 0 0 0 -0.2005,-0.07493 1.5,1.5 0 0 0 -0.20929,-0.04548 1.5,1.5 0 0 0 -0.21342,-0.0155 h -8.55245 c -1.10468,6.7e-5 -2.0001,0.895721 -1.99988,2.000395 7e-5,1.104472 0.8954,1.999811 1.99988,1.999878 0,0 4.21518,-0.008 6.05286,0 0.004,1.507607 0,6.157764 0,6.157764 -2.2e-4,1.104672 0.8952,2.000327 1.99987,2.000394 z" /><circle
         style="fill:#000000;stroke-width:0.296096"
         id="path722-1"
         cx="127.38207"
         cy="-63.111202"
         r="2" /><rect
         style="fill:#000000;stroke-width:0.349576"
         id="rect728-7"
         width="4"
         height="28.972143"
         x="125.38207"
         y="-57.28273"
         ry="2"
         rx="2" /><circle
         style="fill:#000000;stroke-width:0.296096"
         id="circle734-6"
         cx="137.09787"
         cy="30.310591"
         r="2"
         transform="scale(1,-1)" /><rect
         style="fill:#000000;stroke-width:0.349576"
         id="rect736-2"
         width="4"
         height="28.972143"
         x="135.09787"
         y="36.139061"
         ry="2"
         rx="2"
         transform="scale(1,-1)" /><circle
         style="fill:#000000;stroke-width:0.296096"
         id="circle740-1"
         cx="-146.81367"
         cy="-63.111206"
         r="2"
         transform="scale(-1,1)" /><rect
         style="fill:#000000;stroke-width:0.349576"
         id="rect742-5"
         width="4"
         height="28.972143"
         x="-148.81367"
         y="-57.282734"
         ry="2"
         rx="2"
         transform="scale(-1,1)" /><circle
         style="fill:#000000;stroke-width:0.296096"
         id="circle746-5"
         cx="-156.52948"
         cy="30.310591"
         r="2"
         transform="scale(-1)" /><rect
         style="fill:#000000;stroke-width:0.349576"
         id="rect748-2"
         width="4"
         height="28.972143"
         x="-158.52948"
         y="36.139061"
         ry="2"
         rx="2"
         transform="scale(-1)" /><circle
         style="fill:#000000;stroke-width:0.296096"
         id="circle752-9"
         cx="-166.2453"
         cy="-63.111206"
         r="2"
         transform="scale(-1,1)" /><rect
         style="fill:#000000;stroke-width:0.349576"
         id="rect754-6"
         width="4"
         height="28.972143"
         x="-168.2453"
         y="-57.282734"
         ry="2"
         rx="2"
         transform="scale(-1,1)" /><circle
         style="fill:#000000;stroke-width:0.296096"
         id="circle758-8"
         cx="-175.96111"
         cy="30.310591"
         r="2"
         transform="scale(-1)" /><rect
         style="fill:#000000;stroke-width:0.349576"
         id="rect760-0"
         width="4"
         height="28.972143"
         x="-177.96111"
         y="36.139061"
         ry="2"
         rx="2"
         transform="scale(-1)" /><rect
         style="fill:#f44036;fill-opacity:1;stroke-width:0.29875"
         id="rect617-6"
         width="70"
         height="7.1548491"
         x="116.67159"
         y="-50.288322"
         ry="3.5774245" /></g><g
       id="g432"
       transform="translate(-82.795594,-18.603029)"><path
         id="path5668"
         style="fill:#000000;fill-opacity:1;stroke-width:0.352991"
         d="m -168.82303,-73.478871 c -1.10468,-6.7e-5 -2.0001,-0.895722 -1.99988,-2.000394 v -8.65787 a 1.5,1.5 0 0 1 0.0155,-0.213424 1.5,1.5 0 0 1 0.0455,-0.209289 1.5,1.5 0 0 1 0.0744,-0.200505 1.5,1.5 0 0 1 0.10283,-0.187585 1.5,1.5 0 0 1 0.12816,-0.171566 1.5,1.5 0 0 1 0.15141,-0.151412 1.5,1.5 0 0 1 0.17157,-0.128157 1.5,1.5 0 0 1 0.18758,-0.10232 1.5,1.5 0 0 1 0.20051,-0.07493 1.5,1.5 0 0 1 0.20929,-0.04548 1.5,1.5 0 0 1 0.21342,-0.0155 h 8.55246 c 1.10467,6.7e-5 2.00009,0.895721 1.99987,2.000395 -6e-5,1.104472 -0.8954,1.999811 -1.99987,1.999878 0,0 -4.21518,-0.008 -6.05286,0 -0.004,1.507607 0,6.157764 0,6.157764 2.1e-4,1.104672 -0.89521,2.000327 -1.99989,2.000395 z"
         inkscape:export-filename=".\path5668.svg"
         inkscape:export-xdpi="96"
         inkscape:export-ydpi="96" /><path
         id="path5670"
         style="fill:#000000;fill-opacity:1;stroke-width:0.352991"
         d="m -168.82303,-14.385842 c -1.10468,7e-5 -2.0001,0.89573 -1.99988,2.0004 v 8.65787 a 1.5,1.5 0 0 0 0.0155,0.21342 1.5,1.5 0 0 0 0.0455,0.20929 1.5,1.5 0 0 0 0.0744,0.20051 1.5,1.5 0 0 0 0.10283,0.18758 1.5,1.5 0 0 0 0.12816,0.17157 1.5,1.5 0 0 0 0.15141,0.15141 1.5,1.5 0 0 0 0.17157,0.12816 1.5,1.5 0 0 0 0.18758,0.10232 1.5,1.5 0 0 0 0.20051,0.0749 1.5,1.5 0 0 0 0.20929,0.0455 1.5,1.5 0 0 0 0.21342,0.0155 h 8.55246 c 1.10467,-7e-5 2.00009,-0.89573 1.99987,-2.0004 -6e-5,-1.10447 -0.8954,-1.99981 -1.99987,-1.99988 0,0 -4.21518,0.008 -6.05286,0 -0.004,-1.5076 0,-6.15776 0,-6.15776 2.1e-4,-1.10467 -0.89521,-2.00033 -1.99989,-2.0004 z" /><path
         id="path5672"
         style="fill:#000000;fill-opacity:1;stroke-width:0.352991"
         d="m -32.823074,-14.385842 c 1.10468,7e-5 2.0001,0.89573 1.99988,2.0004 v 8.65787 a 1.5,1.5 0 0 1 -0.0155,0.21342 1.5,1.5 0 0 1 -0.0455,0.20929 1.5,1.5 0 0 1 -0.0744,0.20051 1.5,1.5 0 0 1 -0.10284,0.18758 1.5,1.5 0 0 1 -0.12815,0.17157 1.5,1.5 0 0 1 -0.15142,0.15141 1.5,1.5 0 0 1 -0.17156,0.12816 1.5,1.5 0 0 1 -0.18759,0.10232 1.5,1.5 0 0 1 -0.2005,0.0749 1.5,1.5 0 0 1 -0.20929,0.0455 1.5,1.5 0 0 1 -0.21342,0.0155 h -8.55245 c -1.10468,-7e-5 -2.0001,-0.89573 -1.99988,-2.0004 7e-5,-1.10447 0.8954,-1.99981 1.99988,-1.99988 0,0 4.21518,0.008 6.05286,0 0.004,-1.5076 0,-6.15776 0,-6.15776 -2.2e-4,-1.10467 0.8952,-2.00033 1.99987,-2.0004 z" /><path
         id="path5674"
         style="fill:#000000;fill-opacity:1;stroke-width:0.352991"
         d="m -32.823074,-73.478883 c 1.10468,-7e-5 2.0001,-0.89572 1.99988,-2.00039 v -8.65787 a 1.5,1.5 0 0 0 -0.0155,-0.21343 1.5,1.5 0 0 0 -0.0455,-0.20928 1.5,1.5 0 0 0 -0.0744,-0.20051 1.5,1.5 0 0 0 -0.10284,-0.18758 1.5,1.5 0 0 0 -0.12815,-0.17157 1.5,1.5 0 0 0 -0.15142,-0.15141 1.5,1.5 0 0 0 -0.17156,-0.12816 1.5,1.5 0 0 0 -0.18759,-0.10232 1.5,1.5 0 0 0 -0.2005,-0.0749 1.5,1.5 0 0 0 -0.20929,-0.0455 1.5,1.5 0 0 0 -0.21342,-0.0155 h -8.55245 c -1.10468,7e-5 -2.0001,0.89572 -1.99988,2.0004 7e-5,1.10447 0.8954,1.99981 1.99988,1.99987 0,0 4.21518,-0.008 6.05286,0 0.004,1.50761 0,6.15777 0,6.15777 -2.2e-4,1.10467 0.8952,2.00032 1.99987,2.00039 z" /></g><g
       id="g2432"
       transform="matrix(1.1322266,0,0,1.1322266,-708.38013,33.619169)"><path
         id="path1384"
         d="m 128.00108,-116.89741 c -6.565,0 -20.24522,1.44386 -20.82422,1.50586 l -0.0586,0.006 -0.0567,0.0117 c -2.27999,0.443 -4.07359,1.81757 -5.18359,3.97657 -0.718,1.39499 -0.91794,2.66681 -0.96094,3.00781 -0.172,0.843 -2.253652,11.047565 -3.097652,15.351561 h -9.0586 c -1.504,0 -2.72851,1.22547 -2.72851,2.730468 v 2.072266 c 0,1.504998 1.22451,2.730469 2.72851,2.730469 0,0 5.708213,0.577975 8.47266,0 21.264972,-4.407514 41.905742,-4.554727 61.533202,0 2.76445,0.577975 8.47266,0 8.47266,0 1.504,0 2.72851,-1.225471 2.72851,-2.730469 v -2.072266 c 0.002,-1.506998 -1.22256,-2.732421 -2.72656,-2.732421 h -9.06055 c -0.844,-4.303996 -2.9237,-14.508568 -3.0957,-15.351558 -0.045,-0.341 -0.24589,-1.61182 -0.96289,-3.00782 -1.109,-2.158 -2.90164,-3.53256 -5.18164,-3.97656 l -0.0586,-0.0117 -0.0586,-0.006 c -0.577,-0.06 -14.25627,-1.5039 -20.82227,-1.5039 z"
         style="opacity:1;fill:#000000;fill-opacity:1" /><path
         id="path1386"
         style="fill:#000000;fill-opacity:1"
         d="m 95.793947,-74.667969 v 0.02344 c 0.002,0.108 0.05383,2.691065 0.798828,5.789062 0.443999,1.843998 1.043204,3.492345 1.783203,4.902344 1.851732,3.959198 5.277962,4.629295 9.179692,4.650391 9.58382,0 15.18959,-5.415049 18.84566,-15.687441 0.155,-0.304 0.31117,-0.533985 0.45117,-0.708985 0.244,-0.302999 0.5464,-0.55414 0.9414,-0.61914 0.067,-0.012 0.13703,-0.01848 0.20703,-0.02148 0.07,0.004 0.14004,0.01049 0.20704,0.02148 0.395,0.065 0.6974,0.316141 0.9414,0.61914 0.141,0.175 0.29517,0.404985 0.45117,0.708985 3.61107,7.746074 9.25795,15.687485 18.84764,15.687485 4.18774,-0.08726 7.22789,-1.008161 9.17382,-4.650391 0.74,-1.409999 1.34021,-3.059346 1.78321,-4.902344 0.746,-3.097997 0.79683,-5.681062 0.79883,-5.789062 v -0.02344 c -0.41513,-4.350085 -5.50782,-3.740234 -5.50782,-3.740234 h -53.39055 c 0,0 -5.477473,0.45382 -5.511723,3.74019 z" /><g
         id="g1688"
         transform="translate(0.5411135)"><path
           d="m 115.67638,-56.20941 c -0.51,0 -0.922,0.412 -0.922,0.922 v 11.137 c 0,0.51 0.412,0.922 0.922,0.922 0.509,0 0.922,-0.412 0.922,-0.922 v -11.138 c 0,-0.509 -0.413,-0.921 -0.922,-0.921 z"
           id="path1639" /><path
           d="m 119.61138,-49.42041 c 0.51,0 0.922,-0.414 0.922,-0.922 v -4.945 c 0,-0.51 -0.412,-0.922 -0.922,-0.922 -0.509,0 -0.922,0.412 -0.922,0.922 v 4.945 c 0,0.508 0.413,0.922 0.922,0.922 z"
           id="path1641" /><path
           d="m 121.57338,-49.42041 c 0.509,0 0.922,-0.414 0.922,-0.922 v -4.945 c 0,-0.51 -0.413,-0.922 -0.922,-0.922 -0.509,0 -0.922,0.412 -0.922,0.922 v 4.945 c 0,0.508 0.413,0.922 0.922,0.922 z"
           id="path1643" /><path
           d="m 123.53538,-49.42041 c 0.509,0 0.922,-0.414 0.922,-0.922 v -4.945 c 0,-0.51 -0.413,-0.922 -0.922,-0.922 -0.51,0 -0.922,0.412 -0.922,0.922 v 4.945 c 0,0.508 0.412,0.922 0.922,0.922 z"
           id="path1645" /><path
           d="m 125.49638,-49.42041 c 0.51,0 0.922,-0.414 0.922,-0.922 v -4.945 c 0,-0.51 -0.412,-0.922 -0.922,-0.922 -0.509,0 -0.922,0.412 -0.922,0.922 v 4.945 c 0,0.508 0.413,0.922 0.922,0.922 z"
           id="path1647" /><path
           d="m 127.45838,-49.42041 c 0.51,0 0.922,-0.414 0.922,-0.922 v -4.945 c 0,-0.51 -0.412,-0.922 -0.922,-0.922 -0.509,0 -0.922,0.412 -0.922,0.922 v 4.945 c 0,0.508 0.413,0.922 0.922,0.922 z"
           id="path1649" /><path
           d="m 139.23938,-56.20941 c -0.51,0 -0.922,0.412 -0.922,0.922 v 11.137 c 0,0.51 0.412,0.922 0.922,0.922 0.51,0 0.922,-0.412 0.922,-0.922 v -11.138 c 0,-0.509 -0.412,-0.921 -0.922,-0.921 z"
           id="path1651" /><path
           d="m 137.26738,-56.20941 c -0.51,0 -0.922,0.412 -0.922,0.922 v 4.945 c 0,0.508 0.412,0.922 0.922,0.922 0.508,0 0.922,-0.414 0.922,-0.922 v -4.945 c -0.001,-0.51 -0.415,-0.922 -0.922,-0.922 z"
           id="path1653" /><path
           d="m 135.30438,-49.42041 c 0.51,0 0.922,-0.414 0.922,-0.922 v -4.945 c 0,-0.51 -0.412,-0.922 -0.922,-0.922 -0.508,0 -0.922,0.412 -0.922,0.922 v 4.945 c 0,0.508 0.414,0.922 0.922,0.922 z"
           id="path1655" /><path
           d="m 133.34338,-49.42041 c 0.51,0 0.922,-0.414 0.922,-0.922 v -4.945 c 0,-0.51 -0.412,-0.922 -0.922,-0.922 -0.51,0 -0.922,0.412 -0.922,0.922 v 4.945 c 0,0.508 0.412,0.922 0.922,0.922 z"
           id="path1657" /><path
           d="m 131.38238,-49.42041 c 0.508,0 0.922,-0.414 0.922,-0.922 v -4.945 c 0,-0.51 -0.414,-0.922 -0.922,-0.922 -0.51,0 -0.922,0.412 -0.922,0.922 v 4.945 c 0,0.508 0.412,0.922 0.922,0.922 z"
           id="path1659" /><path
           d="m 129.41938,-49.42041 c 0.51,0 0.922,-0.414 0.922,-0.922 v -4.945 c 0,-0.51 -0.412,-0.922 -0.922,-0.922 -0.508,0 -0.922,0.412 -0.922,0.922 v 4.945 c 0,0.508 0.414,0.922 0.922,0.922 z"
           id="path1661" /><path
           d="m 118.57238,-50.34241 v -4.945 c 0,-0.51 -0.413,-0.922 -0.922,-0.922 -0.51,0 -0.922,0.412 -0.922,0.922 v 4.945 c 0,0.508 0.412,0.922 0.922,0.922 0.509,0 0.922,-0.414 0.922,-0.922 z"
           id="path1637" /></g></g><path
       d="m -704.54412,-62.243316 v 10.426252 c 0,1.726587 1.39916,3.127874 3.12784,3.127874 h 22.53945 c -1.04048,2.952715 -2.61902,5.626006 -4.59793,7.934372 l 12.58031,10.903777 c 6.30162,-7.308804 10.14058,-16.794601 10.14058,-27.179145 0,-1.726587 -0.1332,-3.519905 -0.42165,-5.634352 -0.21043,-1.549337 -1.53472,-2.706653 -3.09867,-2.706653 h -37.14249 c -1.72867,0 -3.12783,1.401288 -3.12783,3.127875 z m -21.66156,13.055747 c -0.81745,-2.46893 -1.27621,-5.102603 -1.27621,-7.842617 0,-2.740023 0.45868,-5.373695 1.27621,-7.842626 l -13.67304,-10.455444 c -2.71707,5.532164 -4.2852,11.72744 -4.2852,18.29807 0,6.570621 1.56813,12.765898 4.28733,18.298062 z m 38.06207,12.665815 c -4.08502,2.854702 -9.03539,4.514566 -14.31529,4.514566 -8.78303,0 -16.50895,-4.558362 -20.9755,-11.423002 l -13.26636,10.144741 c 7.54024,10.839135 20.06632,17.960262 34.24186,17.960262 10.35952,0 19.82657,-3.820179 27.12706,-10.092614 z m 13.86684,-51.167863 c -7.71954,-7.123216 -17.72874,-11.045569 -28.18213,-11.045569 -14.17554,0 -26.70162,7.121128 -34.24186,17.962344 l 13.26636,10.144741 c 4.46655,-6.866729 12.19247,-11.425083 20.9755,-11.425083 6.13895,0 12.04438,2.25415 16.62781,6.345414 1.23657,1.105181 3.12365,1.050966 4.2956,-0.123026 l 7.35053,-7.348423 c 0.60292,-0.600552 0.93204,-1.424231 0.91541,-2.275013 -0.0158,-0.850782 -0.38145,-1.657775 -1.00722,-2.235385 z"
       id="path327"
       style="stroke-width:2.08525" /></g></svg>
