<?xml version="1.0" encoding="UTF-8" standalone="no"?>
<!-- Created with Inkscape (http://www.inkscape.org/) -->

<svg
   width="68.67485mm"
   height="60.274925mm"
   viewBox="0 0 68.67485 60.274925"
   version="1.1"
   id="svg5"
   xml:space="preserve"
   xmlns="http://www.w3.org/2000/svg"
   xmlns:svg="http://www.w3.org/2000/svg"><defs
     id="defs2" /><g
     id="layer1"
     transform="translate(-221.23061,77.674398)"><g
       id="g2432"
       transform="matrix(0.81818569,0,0,0.81818569,150.84023,17.969388)"><path
         id="path1384"
         d="m 128.00108,-116.89741 c -6.565,0 -20.24522,1.44386 -20.82422,1.50586 l -0.0586,0.006 -0.0567,0.0117 c -2.27999,0.443 -4.07359,1.81757 -5.18359,3.97657 -0.718,1.39499 -0.91794,2.66681 -0.96094,3.00781 -0.172,0.843 -2.253652,11.047565 -3.097652,15.351561 h -9.0586 c -1.504,0 -2.72851,1.22547 -2.72851,2.730468 v 2.072266 c 0,1.504998 1.22451,2.730469 2.72851,2.730469 0,0 5.708213,0.577975 8.47266,0 21.264972,-4.407514 41.905742,-4.554727 61.533202,0 2.76445,0.577975 8.47266,0 8.47266,0 1.504,0 2.72851,-1.225471 2.72851,-2.730469 v -2.072266 c 0.002,-1.506998 -1.22256,-2.732421 -2.72656,-2.732421 h -9.06055 c -0.844,-4.303996 -2.9237,-14.508568 -3.0957,-15.351558 -0.045,-0.341 -0.24589,-1.61182 -0.96289,-3.00782 -1.109,-2.158 -2.90164,-3.53256 -5.18164,-3.97656 l -0.0586,-0.0117 -0.0586,-0.006 c -0.577,-0.06 -14.25627,-1.5039 -20.82227,-1.5039 z"
         style="opacity:1;fill:#000000;fill-opacity:1" /><path
         id="path1386"
         style="fill:#000000;fill-opacity:1"
         d="m 95.793947,-74.667969 v 0.02344 c 0.002,0.108 0.05383,2.691065 0.798828,5.789062 0.443999,1.843998 1.043204,3.492345 1.783203,4.902344 1.851732,3.959198 5.277962,4.629295 9.179692,4.650391 9.58382,0 15.18959,-5.415049 18.84566,-15.687441 0.155,-0.304 0.31117,-0.533985 0.45117,-0.708985 0.244,-0.302999 0.5464,-0.55414 0.9414,-0.61914 0.067,-0.012 0.13703,-0.01848 0.20703,-0.02148 0.07,0.004 0.14004,0.01049 0.20704,0.02148 0.395,0.065 0.6974,0.316141 0.9414,0.61914 0.141,0.175 0.29517,0.404985 0.45117,0.708985 3.61107,7.746074 9.25795,15.687485 18.84764,15.687485 4.18774,-0.08726 7.22789,-1.008161 9.17382,-4.650391 0.74,-1.409999 1.34021,-3.059346 1.78321,-4.902344 0.746,-3.097997 0.79683,-5.681062 0.79883,-5.789062 v -0.02344 c -0.41513,-4.350085 -5.50782,-3.740234 -5.50782,-3.740234 h -53.39055 c 0,0 -5.477473,0.45382 -5.511723,3.74019 z" /><g
         id="g1688"
         transform="translate(0.5411135)"><path
           d="m 115.67638,-56.20941 c -0.51,0 -0.922,0.412 -0.922,0.922 v 11.137 c 0,0.51 0.412,0.922 0.922,0.922 0.509,0 0.922,-0.412 0.922,-0.922 v -11.138 c 0,-0.509 -0.413,-0.921 -0.922,-0.921 z"
           id="path1639" /><path
           d="m 119.61138,-49.42041 c 0.51,0 0.922,-0.414 0.922,-0.922 v -4.945 c 0,-0.51 -0.412,-0.922 -0.922,-0.922 -0.509,0 -0.922,0.412 -0.922,0.922 v 4.945 c 0,0.508 0.413,0.922 0.922,0.922 z"
           id="path1641" /><path
           d="m 121.57338,-49.42041 c 0.509,0 0.922,-0.414 0.922,-0.922 v -4.945 c 0,-0.51 -0.413,-0.922 -0.922,-0.922 -0.509,0 -0.922,0.412 -0.922,0.922 v 4.945 c 0,0.508 0.413,0.922 0.922,0.922 z"
           id="path1643" /><path
           d="m 123.53538,-49.42041 c 0.509,0 0.922,-0.414 0.922,-0.922 v -4.945 c 0,-0.51 -0.413,-0.922 -0.922,-0.922 -0.51,0 -0.922,0.412 -0.922,0.922 v 4.945 c 0,0.508 0.412,0.922 0.922,0.922 z"
           id="path1645" /><path
           d="m 125.49638,-49.42041 c 0.51,0 0.922,-0.414 0.922,-0.922 v -4.945 c 0,-0.51 -0.412,-0.922 -0.922,-0.922 -0.509,0 -0.922,0.412 -0.922,0.922 v 4.945 c 0,0.508 0.413,0.922 0.922,0.922 z"
           id="path1647" /><path
           d="m 127.45838,-49.42041 c 0.51,0 0.922,-0.414 0.922,-0.922 v -4.945 c 0,-0.51 -0.412,-0.922 -0.922,-0.922 -0.509,0 -0.922,0.412 -0.922,0.922 v 4.945 c 0,0.508 0.413,0.922 0.922,0.922 z"
           id="path1649" /><path
           d="m 139.23938,-56.20941 c -0.51,0 -0.922,0.412 -0.922,0.922 v 11.137 c 0,0.51 0.412,0.922 0.922,0.922 0.51,0 0.922,-0.412 0.922,-0.922 v -11.138 c 0,-0.509 -0.412,-0.921 -0.922,-0.921 z"
           id="path1651" /><path
           d="m 137.26738,-56.20941 c -0.51,0 -0.922,0.412 -0.922,0.922 v 4.945 c 0,0.508 0.412,0.922 0.922,0.922 0.508,0 0.922,-0.414 0.922,-0.922 v -4.945 c -0.001,-0.51 -0.415,-0.922 -0.922,-0.922 z"
           id="path1653" /><path
           d="m 135.30438,-49.42041 c 0.51,0 0.922,-0.414 0.922,-0.922 v -4.945 c 0,-0.51 -0.412,-0.922 -0.922,-0.922 -0.508,0 -0.922,0.412 -0.922,0.922 v 4.945 c 0,0.508 0.414,0.922 0.922,0.922 z"
           id="path1655" /><path
           d="m 133.34338,-49.42041 c 0.51,0 0.922,-0.414 0.922,-0.922 v -4.945 c 0,-0.51 -0.412,-0.922 -0.922,-0.922 -0.51,0 -0.922,0.412 -0.922,0.922 v 4.945 c 0,0.508 0.412,0.922 0.922,0.922 z"
           id="path1657" /><path
           d="m 131.38238,-49.42041 c 0.508,0 0.922,-0.414 0.922,-0.922 v -4.945 c 0,-0.51 -0.414,-0.922 -0.922,-0.922 -0.51,0 -0.922,0.412 -0.922,0.922 v 4.945 c 0,0.508 0.412,0.922 0.922,0.922 z"
           id="path1659" /><path
           d="m 129.41938,-49.42041 c 0.51,0 0.922,-0.414 0.922,-0.922 v -4.945 c 0,-0.51 -0.412,-0.922 -0.922,-0.922 -0.508,0 -0.922,0.412 -0.922,0.922 v 4.945 c 0,0.508 0.414,0.922 0.922,0.922 z"
           id="path1661" /><path
           d="m 118.57238,-50.34241 v -4.945 c 0,-0.51 -0.413,-0.922 -0.922,-0.922 -0.51,0 -0.922,0.412 -0.922,0.922 v 4.945 c 0,0.508 0.412,0.922 0.922,0.922 0.509,0 0.922,-0.414 0.922,-0.922 z"
           id="path1637" /></g></g></g></svg>
