<?xml version="1.0" encoding="UTF-8" standalone="no"?>
<!-- Created with Inkscape (http://www.inkscape.org/) -->

<svg
   width="75.099655mm"
   height="51.760914mm"
   viewBox="0 0 75.099655 51.760914"
   version="1.1"
   id="svg5"
   xml:space="preserve"
   inkscape:export-filename="logo_escuro.svg"
   inkscape:export-xdpi="96"
   inkscape:export-ydpi="96"
   inkscape:version="1.2.2 (732a01da63, 2022-12-09)"
   sodipodi:docname="logo.svg"
   xmlns:inkscape="http://www.inkscape.org/namespaces/inkscape"
   xmlns:sodipodi="http://sodipodi.sourceforge.net/DTD/sodipodi-0.dtd"
   xmlns="http://www.w3.org/2000/svg"
   xmlns:svg="http://www.w3.org/2000/svg"><sodipodi:namedview
     id="namedview7"
     pagecolor="#ffffff"
     bordercolor="#000000"
     borderopacity="0.25"
     inkscape:showpageshadow="2"
     inkscape:pageopacity="0.0"
     inkscape:pagecheckerboard="0"
     inkscape:deskcolor="#d1d1d1"
     inkscape:document-units="mm"
     showgrid="false"
     showguides="true"
     inkscape:zoom="0.6263417"
     inkscape:cx="375.19456"
     inkscape:cy="46.300606"
     inkscape:window-width="1920"
     inkscape:window-height="1017"
     inkscape:window-x="-8"
     inkscape:window-y="-8"
     inkscape:window-maximized="1"
     inkscape:current-layer="layer1" /><defs
     id="defs2" /><g
     inkscape:label="Camada 1"
     inkscape:groupmode="layer"
     id="layer1"
     transform="translate(-114.12175,72.591352)"><path
       id="path551-6"
       style="fill:#000000;fill-opacity:1;stroke-width:0.352991"
       d="m 116.12164,-60.432924 c -1.10468,-6.7e-5 -2.0001,-0.895722 -1.99988,-2.000394 v -8.65787 a 1.5,1.5 0 0 1 0.0155,-0.213424 1.5,1.5 0 0 1 0.0455,-0.209289 1.5,1.5 0 0 1 0.0744,-0.200505 1.5,1.5 0 0 1 0.10283,-0.187585 1.5,1.5 0 0 1 0.12816,-0.171566 1.5,1.5 0 0 1 0.15141,-0.151412 1.5,1.5 0 0 1 0.17157,-0.128157 1.5,1.5 0 0 1 0.18758,-0.10232 1.5,1.5 0 0 1 0.20051,-0.07493 1.5,1.5 0 0 1 0.20929,-0.04548 1.5,1.5 0 0 1 0.21342,-0.0155 h 8.55246 c 1.10467,6.7e-5 2.00009,0.895721 1.99987,2.000395 -6e-5,1.104472 -0.8954,1.999811 -1.99987,1.999878 0,0 -4.21518,-0.008 -6.05286,0 -0.004,1.507607 0,6.157764 0,6.157764 2.1e-4,1.104672 -0.89521,2.000327 -1.99989,2.000395 z" /><path
       id="path543-3"
       style="fill:#000000;fill-opacity:1;stroke-width:0.352991"
       d="m 116.12164,-32.988873 c -1.10468,6.7e-5 -2.0001,0.895722 -1.99988,2.000394 v 8.65787 a 1.5,1.5 0 0 0 0.0155,0.213424 1.5,1.5 0 0 0 0.0455,0.209289 1.5,1.5 0 0 0 0.0744,0.200505 1.5,1.5 0 0 0 0.10283,0.187585 1.5,1.5 0 0 0 0.12816,0.171566 1.5,1.5 0 0 0 0.15141,0.151412 1.5,1.5 0 0 0 0.17157,0.128157 1.5,1.5 0 0 0 0.18758,0.10232 1.5,1.5 0 0 0 0.20051,0.07493 1.5,1.5 0 0 0 0.20929,0.04548 1.5,1.5 0 0 0 0.21342,0.0155 h 8.55246 c 1.10467,-6.7e-5 2.00009,-0.895721 1.99987,-2.000395 -6e-5,-1.104472 -0.8954,-1.999811 -1.99987,-1.999878 0,0 -4.21518,0.008 -6.05286,0 -0.004,-1.507607 0,-6.157764 0,-6.157764 2.1e-4,-1.104672 -0.89521,-2.000327 -1.99989,-2.000395 z" /><path
       id="path553-6"
       style="fill:#000000;fill-opacity:1;stroke-width:0.352991"
       d="m 187.22153,-32.988873 c 1.10468,6.7e-5 2.0001,0.895722 1.99988,2.000394 v 8.65787 a 1.5,1.5 0 0 1 -0.0155,0.213424 1.5,1.5 0 0 1 -0.0455,0.209289 1.5,1.5 0 0 1 -0.0744,0.200505 1.5,1.5 0 0 1 -0.10284,0.187585 1.5,1.5 0 0 1 -0.12815,0.171566 1.5,1.5 0 0 1 -0.15142,0.151412 1.5,1.5 0 0 1 -0.17156,0.128157 1.5,1.5 0 0 1 -0.18759,0.10232 1.5,1.5 0 0 1 -0.2005,0.07493 1.5,1.5 0 0 1 -0.20929,0.04548 1.5,1.5 0 0 1 -0.21342,0.0155 h -8.55245 c -1.10468,-6.7e-5 -2.0001,-0.895721 -1.99988,-2.000395 7e-5,-1.104472 0.8954,-1.999811 1.99988,-1.999878 0,0 4.21518,0.008 6.05286,0 0.004,-1.507607 0,-6.157764 0,-6.157764 -2.2e-4,-1.104672 0.8952,-2.000327 1.99987,-2.000394 z" /><path
       id="path555-9"
       style="fill:#000000;fill-opacity:1;stroke-width:0.352991"
       d="m 187.22153,-60.432924 c 1.10468,-6.7e-5 2.0001,-0.895722 1.99988,-2.000394 v -8.65787 a 1.5,1.5 0 0 0 -0.0155,-0.213424 1.5,1.5 0 0 0 -0.0455,-0.209289 1.5,1.5 0 0 0 -0.0744,-0.200505 1.5,1.5 0 0 0 -0.10284,-0.187585 1.5,1.5 0 0 0 -0.12815,-0.171566 1.5,1.5 0 0 0 -0.15142,-0.151412 1.5,1.5 0 0 0 -0.17156,-0.128157 1.5,1.5 0 0 0 -0.18759,-0.10232 1.5,1.5 0 0 0 -0.2005,-0.07493 1.5,1.5 0 0 0 -0.20929,-0.04548 1.5,1.5 0 0 0 -0.21342,-0.0155 h -8.55245 c -1.10468,6.7e-5 -2.0001,0.895721 -1.99988,2.000395 7e-5,1.104472 0.8954,1.999811 1.99988,1.999878 0,0 4.21518,-0.008 6.05286,0 0.004,1.507607 0,6.157764 0,6.157764 -2.2e-4,1.104672 0.8952,2.000327 1.99987,2.000394 z" /><circle
       style="fill:#000000;stroke-width:0.296096"
       id="path722-1"
       cx="127.38207"
       cy="-63.111202"
       r="2" /><rect
       style="fill:#000000;stroke-width:0.349576"
       id="rect728-7"
       width="4"
       height="28.972143"
       x="125.38207"
       y="-57.28273"
       ry="2"
       rx="2" /><circle
       style="fill:#000000;stroke-width:0.296096"
       id="circle734-6"
       cx="137.09787"
       cy="30.310591"
       r="2"
       transform="scale(1,-1)" /><rect
       style="fill:#000000;stroke-width:0.349576"
       id="rect736-2"
       width="4"
       height="28.972143"
       x="135.09787"
       y="36.139061"
       ry="2"
       rx="2"
       transform="scale(1,-1)" /><circle
       style="fill:#000000;stroke-width:0.296096"
       id="circle740-1"
       cx="-146.81367"
       cy="-63.111206"
       r="2"
       transform="scale(-1,1)" /><rect
       style="fill:#000000;stroke-width:0.349576"
       id="rect742-5"
       width="4"
       height="28.972143"
       x="-148.81367"
       y="-57.282734"
       ry="2"
       rx="2"
       transform="scale(-1,1)" /><circle
       style="fill:#000000;stroke-width:0.296096"
       id="circle746-5"
       cx="-156.52948"
       cy="30.310591"
       r="2"
       transform="scale(-1)" /><rect
       style="fill:#000000;stroke-width:0.349576"
       id="rect748-2"
       width="4"
       height="28.972143"
       x="-158.52948"
       y="36.139061"
       ry="2"
       rx="2"
       transform="scale(-1)" /><circle
       style="fill:#000000;stroke-width:0.296096"
       id="circle752-9"
       cx="-166.2453"
       cy="-63.111206"
       r="2"
       transform="scale(-1,1)" /><rect
       style="fill:#000000;stroke-width:0.349576"
       id="rect754-6"
       width="4"
       height="28.972143"
       x="-168.2453"
       y="-57.282734"
       ry="2"
       rx="2"
       transform="scale(-1,1)" /><circle
       style="fill:#000000;stroke-width:0.296096"
       id="circle758-8"
       cx="-175.96111"
       cy="30.310591"
       r="2"
       transform="scale(-1)" /><rect
       style="fill:#000000;stroke-width:0.349576"
       id="rect760-0"
       width="4"
       height="28.972143"
       x="-177.96111"
       y="36.139061"
       ry="2"
       rx="2"
       transform="scale(-1)" /><rect
       style="fill:#f44036;fill-opacity:1;stroke-width:0.29875"
       id="rect617-6"
       width="70"
       height="7.1548491"
       x="116.67159"
       y="-50.288322"
       ry="3.5774245" /></g></svg>
