<?xml version="1.0" encoding="UTF-8" standalone="no"?>
<!-- Created with Inkscape (http://www.inkscape.org/) -->

<svg
   width="75.09964mm"
   height="51.760914mm"
   viewBox="0 0 75.09964 51.760914"
   version="1.1"
   id="svg5"
   xml:space="preserve"
   inkscape:export-filename="logo_escuro.svg"
   inkscape:export-xdpi="96"
   inkscape:export-ydpi="96"
   inkscape:version="1.2.2 (732a01da63, 2022-12-09)"
   sodipodi:docname="logo_dark_mode.svg"
   xmlns:inkscape="http://www.inkscape.org/namespaces/inkscape"
   xmlns:sodipodi="http://sodipodi.sourceforge.net/DTD/sodipodi-0.dtd"
   xmlns="http://www.w3.org/2000/svg"
   xmlns:svg="http://www.w3.org/2000/svg"><sodipodi:namedview
     id="namedview7"
     pagecolor="#ffffff"
     bordercolor="#000000"
     borderopacity="0.25"
     inkscape:showpageshadow="2"
     inkscape:pageopacity="0.0"
     inkscape:pagecheckerboard="0"
     inkscape:deskcolor="#d1d1d1"
     inkscape:document-units="mm"
     showgrid="false"
     showguides="true"
     inkscape:zoom="1.2526834"
     inkscape:cx="328.09567"
     inkscape:cy="199.57158"
     inkscape:window-width="1920"
     inkscape:window-height="1017"
     inkscape:window-x="-8"
     inkscape:window-y="-8"
     inkscape:window-maximized="1"
     inkscape:current-layer="g3140" /><defs
     id="defs2" /><g
     inkscape:label="Camada 1"
     inkscape:groupmode="layer"
     id="layer1"
     transform="translate(-132.3917,57.840136)"><g
       id="g3140"
       transform="translate(0.844853,-119.15798)"><g
         id="g3109"
         style="opacity:1;fill:#ffffff;fill-opacity:1"
         transform="translate(93.739067,33.79412)"><g
           id="g3069"
           style="fill:#ffffff;fill-opacity:1"><path
             id="path3059"
             style="fill:#ffffff;fill-opacity:1;stroke-width:0.352991"
             d="m 39.807651,39.682156 c -1.10468,-6.7e-5 -2.0001,-0.895722 -1.99988,-2.000394 v -8.65787 a 1.5,1.5 0 0 1 0.0155,-0.213424 1.5,1.5 0 0 1 0.0455,-0.209289 1.5,1.5 0 0 1 0.0744,-0.200505 1.5,1.5 0 0 1 0.10283,-0.187585 1.5,1.5 0 0 1 0.12816,-0.171566 1.5,1.5 0 0 1 0.15141,-0.151412 1.5,1.5 0 0 1 0.17157,-0.128157 1.5,1.5 0 0 1 0.18758,-0.10232 1.5,1.5 0 0 1 0.20051,-0.07493 1.5,1.5 0 0 1 0.20929,-0.04548 1.5,1.5 0 0 1 0.21342,-0.0155 h 8.55246 c 1.10467,6.7e-5 2.00009,0.895721 1.99987,2.000395 -6e-5,1.104472 -0.8954,1.999811 -1.99987,1.999878 0,0 -4.21518,-0.008 -6.05286,0 -0.004,1.507607 0,6.157764 0,6.157764 2.1e-4,1.104672 -0.89521,2.000327 -1.99989,2.000395 z" /><path
             id="path3061"
             style="fill:#ffffff;fill-opacity:1;stroke-width:0.352991"
             d="m 39.807651,67.126207 c -1.10468,6.7e-5 -2.0001,0.895722 -1.99988,2.000394 v 8.65787 a 1.5,1.5 0 0 0 0.0155,0.213424 1.5,1.5 0 0 0 0.0455,0.209289 1.5,1.5 0 0 0 0.0744,0.200505 1.5,1.5 0 0 0 0.10283,0.187585 1.5,1.5 0 0 0 0.12816,0.171566 1.5,1.5 0 0 0 0.15141,0.151412 1.5,1.5 0 0 0 0.17157,0.128157 1.5,1.5 0 0 0 0.18758,0.10232 1.5,1.5 0 0 0 0.20051,0.07493 1.5,1.5 0 0 0 0.20929,0.04548 1.5,1.5 0 0 0 0.21342,0.0155 h 8.55246 c 1.10467,-6.7e-5 2.00009,-0.895721 1.99987,-2.000395 -6e-5,-1.104472 -0.8954,-1.999811 -1.99987,-1.999878 0,0 -4.21518,0.008 -6.05286,0 -0.004,-1.507607 0,-6.157764 0,-6.157764 2.1e-4,-1.104672 -0.89521,-2.000327 -1.99989,-2.000394 z" /><g
             id="g3067"
             transform="translate(-1.6099813,11.788499)"
             style="fill:#ffffff;fill-opacity:1"><path
               id="path3063"
               style="fill:#ffffff;fill-opacity:1;stroke-width:0.352991"
               d="m 112.51752,55.337708 c 1.10468,6.7e-5 2.0001,0.895722 1.99988,2.000394 v 8.65787 a 1.5,1.5 0 0 1 -0.0155,0.213424 1.5,1.5 0 0 1 -0.0455,0.209289 1.5,1.5 0 0 1 -0.0744,0.200505 1.5,1.5 0 0 1 -0.10284,0.187585 1.5,1.5 0 0 1 -0.12815,0.171566 1.5,1.5 0 0 1 -0.15142,0.151412 1.5,1.5 0 0 1 -0.17156,0.128157 1.5,1.5 0 0 1 -0.18759,0.10232 1.5,1.5 0 0 1 -0.2005,0.07493 1.5,1.5 0 0 1 -0.20929,0.04548 1.5,1.5 0 0 1 -0.21342,0.0155 h -8.55245 c -1.10468,-6.7e-5 -2.0001,-0.895721 -1.99988,-2.000395 7e-5,-1.104472 0.8954,-1.999811 1.99988,-1.999878 0,0 4.21518,0.008 6.05286,0 0.004,-1.507607 0,-6.157764 0,-6.157764 -2.2e-4,-1.104672 0.8952,-2.000327 1.99987,-2.000394 z" /><path
               id="path3065"
               style="fill:#ffffff;fill-opacity:1;stroke-width:0.352991"
               d="m 112.51752,27.893657 c 1.10468,-6.7e-5 2.0001,-0.895722 1.99988,-2.000394 v -8.65787 a 1.5,1.5 0 0 0 -0.0155,-0.213424 1.5,1.5 0 0 0 -0.0455,-0.209289 1.5,1.5 0 0 0 -0.0744,-0.200505 1.5,1.5 0 0 0 -0.10284,-0.187585 1.5,1.5 0 0 0 -0.12815,-0.171566 1.5,1.5 0 0 0 -0.15142,-0.151412 1.5,1.5 0 0 0 -0.17156,-0.128157 1.5,1.5 0 0 0 -0.18759,-0.10232 1.5,1.5 0 0 0 -0.2005,-0.07493 1.5,1.5 0 0 0 -0.20929,-0.04548 1.5,1.5 0 0 0 -0.21342,-0.0155 h -8.55245 c -1.10468,6.7e-5 -2.0001,0.895721 -1.99988,2.000395 7e-5,1.104472 0.8954,1.999811 1.99988,1.999878 0,0 4.21518,-0.008 6.05286,0 0.004,1.507607 0,6.157764 0,6.157764 -2.2e-4,1.104672 0.8952,2.000327 1.99987,2.000394 z" /></g></g><g
           id="g3107"
           transform="translate(-1.9167701,12.125312)"
           style="fill:#ffffff;fill-opacity:1"><g
             id="g3075"
             style="fill:#ffffff;fill-opacity:1"><circle
               style="fill:#ffffff;fill-opacity:1;stroke-width:0.296096"
               id="circle3071"
               cx="52.98484"
               cy="24.878563"
               r="2" /><rect
               style="fill:#ffffff;fill-opacity:1;stroke-width:0.349576"
               id="rect3073"
               width="4"
               height="28.972143"
               x="50.98484"
               y="30.707035"
               ry="2"
               rx="2" /></g><g
             id="g3081"
             style="fill:#ffffff;fill-opacity:1"
             transform="matrix(1,0,0,-1,9.7158098,82.557741)"><circle
               style="fill:#ffffff;fill-opacity:1;stroke-width:0.296096"
               id="circle3077"
               cx="52.98484"
               cy="24.878563"
               r="2" /><rect
               style="fill:#ffffff;fill-opacity:1;stroke-width:0.349576"
               id="rect3079"
               width="4"
               height="28.972143"
               x="50.98484"
               y="30.707035"
               ry="2"
               rx="2" /></g><g
             id="g3087"
             style="fill:#ffffff;fill-opacity:1"
             transform="matrix(-1,0,0,1,125.4013,-1.1651611e-6)"><circle
               style="fill:#ffffff;fill-opacity:1;stroke-width:0.296096"
               id="circle3083"
               cx="52.98484"
               cy="24.878563"
               r="2" /><rect
               style="fill:#ffffff;fill-opacity:1;stroke-width:0.349576"
               id="rect3085"
               width="4"
               height="28.972143"
               x="50.98484"
               y="30.707035"
               ry="2"
               rx="2" /></g><g
             id="g3093"
             style="fill:#ffffff;fill-opacity:1"
             transform="rotate(180,67.558555,41.27887)"><circle
               style="fill:#ffffff;fill-opacity:1;stroke-width:0.296096"
               id="circle3089"
               cx="52.98484"
               cy="24.878563"
               r="2" /><rect
               style="fill:#ffffff;fill-opacity:1;stroke-width:0.349576"
               id="rect3091"
               width="4"
               height="28.972143"
               x="50.98484"
               y="30.707035"
               ry="2"
               rx="2" /></g><g
             id="g3099"
             style="fill:#ffffff;fill-opacity:1"
             transform="matrix(-1,0,0,1,144.83292,-1.1651611e-6)"><circle
               style="fill:#ffffff;fill-opacity:1;stroke-width:0.296096"
               id="circle3095"
               cx="52.98484"
               cy="24.878563"
               r="2" /><rect
               style="fill:#ffffff;fill-opacity:1;stroke-width:0.349576"
               id="rect3097"
               width="4"
               height="28.972143"
               x="50.98484"
               y="30.707035"
               ry="2"
               rx="2" /></g><g
             id="g3105"
             style="fill:#ffffff;fill-opacity:1"
             transform="rotate(180,77.274365,41.27887)"><circle
               style="fill:#ffffff;fill-opacity:1;stroke-width:0.296096"
               id="circle3101"
               cx="52.98484"
               cy="24.878563"
               r="2" /><rect
               style="fill:#ffffff;fill-opacity:1;stroke-width:0.349576"
               id="rect3103"
               width="4"
               height="28.972143"
               x="50.98484"
               y="30.707035"
               ry="2"
               rx="2" /></g></g></g><rect
         style="fill:#cb3232;fill-opacity:1;stroke-width:0.29875"
         id="rect3111"
         width="70"
         height="7.1548491"
         x="134.09666"
         y="83.620872"
         ry="3.5774245" /></g></g></svg>
