<?xml version="1.0" encoding="UTF-8" standalone="no"?>
<!-- Created with Inkscape (http://www.inkscape.org/) -->

<svg
   width="139.99971mm"
   height="83.409897mm"
   viewBox="0 0 139.99971 83.409897"
   version="1.1"
   id="svg5"
   xml:space="preserve"
   xmlns="http://www.w3.org/2000/svg"
   xmlns:svg="http://www.w3.org/2000/svg"><defs
     id="defs2" /><g
     id="layer1"
     transform="translate(170.82291,85.637304)"><path
       id="path5668"
       style="fill:#000000;fill-opacity:1;stroke-width:0.352991"
       d="m -168.82303,-73.478871 c -1.10468,-6.7e-5 -2.0001,-0.895722 -1.99988,-2.000394 v -8.65787 a 1.5,1.5 0 0 1 0.0155,-0.213424 1.5,1.5 0 0 1 0.0455,-0.209289 1.5,1.5 0 0 1 0.0744,-0.200505 1.5,1.5 0 0 1 0.10283,-0.187585 1.5,1.5 0 0 1 0.12816,-0.171566 1.5,1.5 0 0 1 0.15141,-0.151412 1.5,1.5 0 0 1 0.17157,-0.128157 1.5,1.5 0 0 1 0.18758,-0.10232 1.5,1.5 0 0 1 0.20051,-0.07493 1.5,1.5 0 0 1 0.20929,-0.04548 1.5,1.5 0 0 1 0.21342,-0.0155 h 8.55246 c 1.10467,6.7e-5 2.00009,0.895721 1.99987,2.000395 -6e-5,1.104472 -0.8954,1.999811 -1.99987,1.999878 0,0 -4.21518,-0.008 -6.05286,0 -0.004,1.507607 0,6.157764 0,6.157764 2.1e-4,1.104672 -0.89521,2.000327 -1.99989,2.000395 z" /><path
       id="path5670"
       style="fill:#000000;fill-opacity:1;stroke-width:0.352991"
       d="m -168.82303,-14.385842 c -1.10468,7e-5 -2.0001,0.89573 -1.99988,2.0004 v 8.65787 a 1.5,1.5 0 0 0 0.0155,0.21342 1.5,1.5 0 0 0 0.0455,0.20929 1.5,1.5 0 0 0 0.0744,0.20051 1.5,1.5 0 0 0 0.10283,0.18758 1.5,1.5 0 0 0 0.12816,0.17157 1.5,1.5 0 0 0 0.15141,0.15141 1.5,1.5 0 0 0 0.17157,0.12816 1.5,1.5 0 0 0 0.18758,0.10232 1.5,1.5 0 0 0 0.20051,0.0749 1.5,1.5 0 0 0 0.20929,0.0455 1.5,1.5 0 0 0 0.21342,0.0155 h 8.55246 c 1.10467,-7e-5 2.00009,-0.89573 1.99987,-2.0004 -6e-5,-1.10447 -0.8954,-1.99981 -1.99987,-1.99988 0,0 -4.21518,0.008 -6.05286,0 -0.004,-1.5076 0,-6.15776 0,-6.15776 2.1e-4,-1.10467 -0.89521,-2.00033 -1.99989,-2.0004 z" /><path
       id="path5672"
       style="fill:#000000;fill-opacity:1;stroke-width:0.352991"
       d="m -32.823074,-14.385842 c 1.10468,7e-5 2.0001,0.89573 1.99988,2.0004 v 8.65787 a 1.5,1.5 0 0 1 -0.0155,0.21342 1.5,1.5 0 0 1 -0.0455,0.20929 1.5,1.5 0 0 1 -0.0744,0.20051 1.5,1.5 0 0 1 -0.10284,0.18758 1.5,1.5 0 0 1 -0.12815,0.17157 1.5,1.5 0 0 1 -0.15142,0.15141 1.5,1.5 0 0 1 -0.17156,0.12816 1.5,1.5 0 0 1 -0.18759,0.10232 1.5,1.5 0 0 1 -0.2005,0.0749 1.5,1.5 0 0 1 -0.20929,0.0455 1.5,1.5 0 0 1 -0.21342,0.0155 h -8.55245 c -1.10468,-7e-5 -2.0001,-0.89573 -1.99988,-2.0004 7e-5,-1.10447 0.8954,-1.99981 1.99988,-1.99988 0,0 4.21518,0.008 6.05286,0 0.004,-1.5076 0,-6.15776 0,-6.15776 -2.2e-4,-1.10467 0.8952,-2.00033 1.99987,-2.0004 z" /><path
       id="path5674"
       style="fill:#000000;fill-opacity:1;stroke-width:0.352991"
       d="m -32.823074,-73.478883 c 1.10468,-7e-5 2.0001,-0.89572 1.99988,-2.00039 v -8.65787 a 1.5,1.5 0 0 0 -0.0155,-0.21343 1.5,1.5 0 0 0 -0.0455,-0.20928 1.5,1.5 0 0 0 -0.0744,-0.20051 1.5,1.5 0 0 0 -0.10284,-0.18758 1.5,1.5 0 0 0 -0.12815,-0.17157 1.5,1.5 0 0 0 -0.15142,-0.15141 1.5,1.5 0 0 0 -0.17156,-0.12816 1.5,1.5 0 0 0 -0.18759,-0.10232 1.5,1.5 0 0 0 -0.2005,-0.0749 1.5,1.5 0 0 0 -0.20929,-0.0455 1.5,1.5 0 0 0 -0.21342,-0.0155 h -8.55245 c -1.10468,7e-5 -2.0001,0.89572 -1.99988,2.0004 7e-5,1.10447 0.8954,1.99981 1.99988,1.99987 0,0 4.21518,-0.008 6.05286,0 0.004,1.50761 0,6.15777 0,6.15777 -2.2e-4,1.10467 0.8952,2.00032 1.99987,2.00039 z" /></g></svg>
